<svg viewBox="55.0 72.4 290.0 255.2" xmlns="http://www.w3.org/2000/svg">
<path d="M 262.00,92.59 Q 265.00,87.40 259.00,87.40 L 141.00,87.40 Q 135.00,87.40 132.00,92.60 L 73.00,194.80 Q 70.00,200.00 73.00,205.20 L 132.00,307.40 Q 135.00,312.60 141.00,312.60 L 259.00,312.60 Q 265.00,312.60 262.00,307.41 L 251.80,289.79 Q 248.80,284.60 242.80,284.60 L 157.20,284.60 Q 151.20,284.60 148.20,279.41 L 105.30,205.19 Q 102.30,200.00 105.30,194.81 L 148.20,120.59 Q 151.20,115.40 157.20,115.40 L 242.80,115.40 Q 248.80,115.40 251.80,110.21 L 262.00,92.59 Z" fill="#FFFFFF"/>
<path d="M 262.00,307.41 Q 265.00,312.60 268.00,307.40 L 327.00,205.20 Q 330.00,200.00 327.00,194.80 L 268.00,92.60 Q 265.00,87.40 262.00,92.59 L 251.80,110.21 Q 248.80,115.40 251.80,120.59 L 294.70,194.81 Q 297.70,200.00 294.70,205.19 L 251.80,279.41 Q 248.80,284.60 251.80,289.79 L 262.00,307.41 Z" fill="#00BFEC"/>
<rect x="286.0" y="295.6" width="44" height="17" rx="6" fill="#00BFEC"/>
</svg>
