<svg viewBox="54.0 54.0 292.0 292.0" xmlns="http://www.w3.org/2000/svg">
<path d="M 262.00,92.59 Q 265.00,87.40 259.00,87.40 L 141.00,87.40 Q 135.00,87.40 132.00,92.60 L 73.00,194.80 Q 70.00,200.00 73.00,205.20 L 132.00,307.40 Q 135.00,312.60 141.00,312.60 L 259.00,312.60 Q 265.00,312.60 262.00,307.41 L 250.19,286.99 Q 247.19,281.80 241.34,281.72 L 158.66,281.72 Q 152.81,281.80 149.96,276.70 L 108.53,205.01 Q 105.53,200.00 108.53,194.99 L 149.96,123.30 Q 152.81,118.20 158.66,118.28 L 241.34,118.28 Q 247.19,118.20 250.19,113.01 L 262.00,92.59 Z" fill="#0A0A0A"/>
<path d="M 262.00,307.41 Q 265.00,312.60 268.00,307.40 L 327.00,205.20 Q 330.00,200.00 327.00,194.80 L 268.00,92.60 Q 265.00,87.40 262.00,92.59 L 250.19,113.01 Q 247.19,118.20 250.04,123.30 L 291.47,194.99 Q 294.47,200.00 291.47,205.01 L 250.04,276.70 Q 247.19,281.80 250.19,286.99 L 262.00,307.41 Z" fill="#00BFEC"/>
</svg>
